<svg width="32" height="32" viewBox="0 0 32 32" fill="none" xmlns="http://www.w3.org/2000/svg">
  <rect width="32" height="32" rx="8" fill="#4F46E5"/>
  <path d="M17.2 22.4C16.1 22.4 15.1 22.15 14.25 21.65C13.4 21.15 12.73 20.43 12.25 19.5C11.77 18.56 11.53 17.45 11.53 16.17C11.53 14.87 11.78 13.75 12.27 12.82C12.77 11.88 13.45 11.16 14.31 10.67C15.18 10.17 16.15 9.92 17.24 9.92C18.18 9.92 19 10.1 19.7 10.47C20.41 10.83 20.96 11.33 21.36 11.97L20.08 12.94C19.73 12.46 19.33 12.1 18.87 11.88C18.42 11.65 17.9 11.53 17.32 11.53C16.56 11.53 15.9 11.72 15.33 12.1C14.77 12.48 14.33 13.01 14.02 13.7C13.72 14.38 13.56 15.18 13.56 16.1C13.56 17.03 13.71 17.84 14 18.53C14.3 19.22 14.73 19.75 15.29 20.13C15.85 20.5 16.52 20.69 17.3 20.69C17.82 20.69 18.32 20.58 18.8 20.37C19.28 20.15 19.67 19.83 19.97 19.42V17.43H17.1V15.92H21.47V20.03C21.03 20.67 20.42 21.22 19.65 21.67C18.88 22.12 18.05 22.4 17.2 22.4Z" fill="white"/>
</svg>
